#define auto_scale_width 16
#define auto_scale_height 16
static unsigned char auto_scale_bits[] = {
   0xc0, 0x03, 0xf0, 0x0f, 0x98, 0x19, 0x80, 0x01, 0x80, 0x01, 0xfe, 0x7f,
   0xfe, 0x7f, 0x00, 0x00, 0x00, 0x00, 0xfe, 0x7f, 0xfe, 0x7f, 0x80, 0x01,
   0x80, 0x01, 0x98, 0x19, 0xf0, 0x0f, 0xc0, 0x03};
