#define auto_scroll_width 16
#define auto_scroll_height 16
static char auto_scroll_bits[] = {
   0x00, 0x00, 0x00, 0x3e, 0x00, 0x3e, 0x00, 0x3e, 0x00, 0x3e, 0xfe, 0x3f,
   0xfe, 0x3f, 0xfe, 0x3f, 0xfe, 0x3f, 0xfe, 0x3f, 0x00, 0x3e, 0x00, 0x3e,
   0x00, 0x3e, 0x00, 0x3e, 0x00, 0x00, 0x00, 0x00};
