#define auto_scaleR_width 16
#define auto_scaleR_height 16
static unsigned char auto_scaleR_bits[] = {
   0x80, 0x00, 0x80, 0x00, 0x80, 0x00, 0xa0, 0x02, 0xa0, 0x02, 0xc0, 0x01,
   0xff, 0xff, 0xff, 0xff, 0xff, 0xff, 0xff, 0xff, 0xc0, 0x01, 0xa0, 0x02,
   0xa0, 0x02, 0x80, 0x00, 0x80, 0x00, 0x80, 0x00};
