/* XPM */
static char * stripTool_icon_xpm[] = {
"48 48 6 1",
" 	c #5A5A29292929",
".	c #FFFFFFFFFFFF",
"X	c #DADA32323232",
"o	c #13131313A3A3",
"O	c #2424A2A23030",
"+	c #A9A93F3F8585",
"                                                ",
" .............................................. ",
" .............................................. ",
" .... ......................................... ",
" .... ......................................... ",
" .... ......................................... ",
" ...   .......X.......X.......X..XXXXXXXXXXX... ",
" ...   ......XX......XX......XX..XXXXXXXXXXX... ",
" ..     ....X.X.....X.X.....X.X..X.X..X....X... ",
" ..     ...X..X....X..X....X..X..XXXXXXXXXXX... ",
" .... ....X...X...X...X...X...X..XXXXXXXXXXX... ",
" .... ...X....X..X....X..X....X................ ",
" .... ..X.....X.X.....X.X.....X................ ",
" .... XX......XX......XX......XX............... ",
" .... ......................................... ",
" .... ....o........o.............ooooooooooo... ",
" .... ....o........o.............ooooooooooo... ",
" .... ...oo.....o..o.............o...o.o...o... ",
" .... ...oo.....o..o.......o.....ooooooooooo... ",
" .... ..o.o.....o..o.......o.....ooooooooooo... ",
" .... ..o.o.....o..o.......oo.................. ",
" .... oo..o.ooooo.oooooooooo.ooo............... ",
" .... ....oo.....o.o.......o................... ",
" .... ....oo.....o............................. ",
" .... ....o......o...............OOOOOOOOOOO... ",
" .... ....o...........O..........OOOOOOOOOOO... ",
" .... .......O........O....O.....O.O.O.....O... ",
" .... .......O....O...O....O.....OOOOOOOOOOO... ",
" .... ..O...O.O...O..O.O...O.....OOOOOOOOOOO... ",
" .... ..O...O.O...O..O.O..O.O.................. ",
" .... .O.O..O.O..OOO.O.O..O.O.................. ",
" .... .O.O.O...O.O.O.O..O.O.O..O............... ",
" .... O..O.O....OO.O.O..OO...O.O............... ",
" .... ....O.....O...OO...O...OO..+++++++++++... ",
" .... ....O.....O...O....O....O..+++++++++++... ",
" .... ...........................+..+.+..+.+... ",
" .... ...++++....................+++++++++++... ",
" .... .++....++......++++........+++++++++++... ",
" .... +........+...++....++....+............... ",
" .... ..........+++........++++................ ",
" .... ...............................  ........ ",
" .... ...............................    ...... ",
" ....                                       ... ",
" ....................................    ...... ",
" ....................................  ........ ",
" .............................................. ",
" .............................................. ",
"                                                "};
